<svg xmlns="http://www.w3.org/2000/svg" xmlns:xlink="http://www.w3.org/1999/xlink" width="512" height="512" viewBox="0 0 512 512">
  <defs>
    <clipPath id="clip-path">
      <path id="Path_13" data-name="Path 13" d="M512,256q0,12.9-1.262,25.5-.674,6.809-1.7,13.5a252.7,252.7,0,0,1-9.961,41.512C469.391,426.2,391.449,493.922,296,508.891a258.173,258.173,0,0,1-39,3.1c-.328.012-.672.012-1,.012C114.621,512,0,397.379,0,256S114.621,0,256,0,512,114.621,512,256Zm0,0" fill="#ff6680"/>
    </clipPath>
  </defs>
  <g id="radio" transform="translate(0 0)">
    <path id="Path_1" data-name="Path 1" d="M512,256q0,12.9-1.262,25.5-.674,6.809-1.7,13.5a252.7,252.7,0,0,1-9.961,41.512C469.391,426.2,391.449,493.922,296,508.891a258.173,258.173,0,0,1-39,3.1c-.328.012-.672.012-1,.012C114.621,512,0,397.379,0,256S114.621,0,256,0,512,114.621,512,256Zm0,0" fill="#ff6680"/>
    <path id="Subtraction_3" data-name="Subtraction 3" d="M-43.837-167.419h0L-83-171.841v-34.741l39.161,39.161Zm-49.869-49.869H-189.13L-141.418-265l47.71,47.71,0,0h0Z" transform="translate(489 388.319)" fill="#d14960"/>
    <path id="Path_3" data-name="Path 3" d="M347.57,144.336l-21.215-21.215L256,193.477l-70.355-70.355-21.215,21.215,70.355,70.352-.355.359,21.215,21.211L256,235.9l.355.355,21.215-21.211-.355-.359Zm0,0" transform="translate(0 -21)" fill="#ffdf4c"/>
    <path id="Path_4" data-name="Path 4" d="M347.57,144.336l-21.215-21.215L256,193.477V235.9l.355.355,21.215-21.211-.355-.359Zm0,0" transform="translate(0 -21)" fill="#d4b93f"/>
    <path id="Path_6" data-name="Path 6" d="M106,191H406V408.969H106Zm0,0" transform="translate(0 -19.969)" fill="#5c6b99"/>
    <path id="Path_7" data-name="Path 7" d="M256,191H406V408.969H256Zm0,0" transform="translate(0 -19.969)" fill="#455373"/>
    <path id="Path_9" data-name="Path 9" d="M146,231H256V369H146Zm0,0" transform="translate(0 -20)" fill="#fff"/>
    <path id="Path_10" data-name="Path 10" d="M146,231H256V369H146Zm0,0" transform="translate(110 -20)" fill="#ebebeb"/>
    <g id="Mask_Group_1" data-name="Mask Group 1" clip-path="url(#clip-path)">
      <path id="Subtraction_1" data-name="Subtraction 1" d="M-100.82,262.787-352.029,11.579H-52.276V-206.214L157.953,4.013-100.821,262.787h0ZM-52.451-206.39H-158.4l.031-.031H-52.482l.029.029,0,0h0Z" transform="translate(458.276 377.421)" fill="#d14960"/>
    </g>
  </g>
</svg>
