<svg xmlns="http://www.w3.org/2000/svg" width="40" height="40" viewBox="0 0 40 40">
  <g id="fun" transform="translate(-2502 -3618)">
    <circle id="Ellipse_71" data-name="Ellipse 71" cx="20" cy="20" r="20" transform="translate(2502 3618)" fill="#e5c9ba"/>
    <g id="Group_219" data-name="Group 219" transform="translate(236.923 201.921)">
      <g id="flags" transform="translate(2273.688 3423.87)">
        <g id="Group_217" data-name="Group 217" transform="translate(20.247 12.767)">
          <ellipse id="Ellipse_68" data-name="Ellipse 68" cx="0.831" cy="0.832" rx="0.831" ry="0.832" fill="#fbcc34"/>
        </g>
        <ellipse id="Ellipse_69" data-name="Ellipse 69" cx="0.831" cy="0.832" rx="0.831" ry="0.832" transform="translate(1.125 21.499)" fill="#06aae9"/>
        <ellipse id="Ellipse_70" data-name="Ellipse 70" cx="0.831" cy="0.832" rx="0.831" ry="0.832" transform="translate(4.451 1.957)" fill="#ed1c24"/>
        <path id="Path_44" data-name="Path 44" d="M3.9,66.931l.588-.588.831.831-.588.588Z" transform="translate(-3.904 -63.017)" fill="#fbcc34"/>
        <path id="Path_45" data-name="Path 45" d="M321.56,24h.831v1.247h-.831Z" transform="translate(-305.055 -22.875)" fill="#ff1d25"/>
        <path id="Path_46" data-name="Path 46" d="M211.9,3.176l.831-.831.588.588-.831.831Z" transform="translate(-201.096 -2.345)" fill="#06aae9"/>
        <g id="Group_218" data-name="Group 218" transform="translate(7.067 5.405)">
          <path id="Path_47" data-name="Path 47" d="M139.908,107.171l.831-.831.588.588-.831.831Z" transform="translate(-139.908 -106.34)" fill="#7ac943"/>
          <path id="Path_48" data-name="Path 48" d="M419.91,138.933l.588-.588.831.831-.588.588Z" transform="translate(-405.361 -136.682)" fill="#7ac943"/>
        </g>
        <path id="Path_49" data-name="Path 49" d="M281.56,216h.831v1.247h-.831Z" transform="translate(-267.133 -204.896)" fill="#ff1d25"/>
        <path id="Path_50" data-name="Path 50" d="M323.909,299.164l.831-.831.588.588-.831.831Z" transform="translate(-307.282 -282.95)" fill="#7ac943"/>
        <path id="Path_51" data-name="Path 51" d="M139.908,258.929l.588-.588.831.831-.588.588Z" transform="translate(-132.841 -245.036)" fill="#06aae9"/>
        <path id="Path_52" data-name="Path 52" d="M193.56,424h.831v1.247h-.831Z" transform="translate(-183.705 -402.086)" fill="#7ac943"/>
        <path id="Path_53" data-name="Path 53" d="M67.865,370.933l.588-.588.831.831-.588.588Z" transform="translate(-64.542 -351.219)" fill="#06aae9"/>
        <path id="Path_54" data-name="Path 54" d="M75.873,443.176l.831-.831.588.588-.831.831Z" transform="translate(-72.134 -419.476)" fill="#ff1d25"/>
        <path id="Path_55" data-name="Path 55" d="M323.908,435.171l.831-.831.588.588-.831.832Z" transform="translate(-307.281 -411.888)" fill="#06aae9"/>
      </g>
      <path id="Path_56" data-name="Path 56" d="M25.675,0l-.416.344A41.089,41.089,0,0,1,1.731,9.552l-.171.01,4.574,4.574L8.212,8.731,13.2,12.473l1.663-5.821,5.405,3.742.416-6.652,4.989,2.495Z" transform="translate(2270.447 3424.001)" fill="#cb2727"/>
      <path id="Path_57" data-name="Path 57" d="M1.424,256q.223.139.447.274a38.3,38.3,0,0,0,23.651,5.43l.163-.016L22.22,266.81l-2.91-4.989-4.158,4.574-2.079-5.405-4.989,4.158L6.836,258.91l-4.574,3.326L1.424,256" transform="translate(2270.576 3181.306)" fill="#ffb300"/>
    </g>
  </g>
</svg>
