<svg id="icCollectionActive" xmlns="http://www.w3.org/2000/svg" width="32" height="32" viewBox="0 0 32 32">
  <rect id="矩形_666" data-name="矩形 666" width="32" height="32" fill="rgba(255,255,255,0)"/>
  <g id="Glyphs_Tab_Bar_Collection_Disabled" data-name="Glyphs / Tab Bar / Collection / Disabled" transform="translate(2.8 6.933)">
    <path id="Path_7" data-name="Path 7" d="M10.084,0a8.4,8.4,0,0,0-7.9,5.552l-.267.741A18.673,18.673,0,0,0,1.293,16.8h18.99l1.238-5.345L17.393,0Z" transform="translate(4.612 3.733)" fill="#37b1f8"/>
    <g id="Group">
      <path id="Combined_Shape" data-name="Combined Shape" d="M9.333,14H0L5.026,0H21.108l5.026,14H16.8a3.733,3.733,0,0,1-7.467,0Z" fill="none" stroke="#fff" stroke-linejoin="round" stroke-miterlimit="10" stroke-width="2"/>
      <path id="Combined_Shape-2" data-name="Combined Shape" d="M24.626,7.467H1.508L0,0H9.333a3.709,3.709,0,0,0,1.095,2.638,3.709,3.709,0,0,0,2.639,1.094A3.737,3.737,0,0,0,16.8,0h9.333L24.626,7.466Z" transform="translate(0 14)" fill="none" stroke="#fff" stroke-linejoin="round" stroke-miterlimit="10" stroke-width="2"/>
      <path id="Triangle" d="M2.323.516a.933.933,0,0,1,1.67,0L6.216,4.962a.933.933,0,0,1-.835,1.351H.935A.933.933,0,0,1,.1,4.962Z" transform="translate(16.58 4.309) rotate(90)" fill="none" stroke="#fff" stroke-miterlimit="10" stroke-width="2"/>
    </g>
  </g>
</svg>
