<svg xmlns="http://www.w3.org/2000/svg" width="24" height="24" viewBox="0 0 24 24">
    <g fill="#FFF" fill-rule="evenodd" transform="translate(4 4)">
        <path fill-rule="nonzero" d="M2.744 16.77c-.785.221-1.4.3-1.869.163C-.45 16.547-.195 15.39.644 14.6c.593-.558.824-1.265.689-2.222C-.152 10.923-1 9.024-1 7c0-4.45 4.057-8 9-8s9 3.55 9 8-4.057 8-9 8c-.466 0-.929-.032-1.384-.094-1.057.79-2.554 1.493-3.872 1.864zm.31-2.21c.991-.379 2.003-.927 2.631-1.469l.363-.313.472.087c.482.09.977.135 1.48.135 3.893 0 7-2.718 7-6s-3.107-6-7-6-7 2.718-7 6c0 1.553.694 3.02 1.93 4.133l.242.219.067.32c.222 1.067.16 2.04-.185 2.889z"/>
        <circle cx="4" cy="7" r="1"/>
        <circle cx="8" cy="7" r="1"/>
        <circle cx="12" cy="7" r="1"/>
    </g>
</svg>
