<svg xmlns="http://www.w3.org/2000/svg" width="48" height="32" viewBox="0 0 48 32">
    <g fill="none" fill-rule="evenodd">
        <path fill="#EE3274" d="M36.255 15.968l-4.399-4.32a7.93 7.93 0 0 0-11.303.193l-3.1 3.261a1.527 1.527 0 0 0 1.106 2.58V23a5 5 0 0 0 5 5h9.464V17.681h2.532a1 1 0 0 0 .7-1.713z"/>
        <path stroke="#FFF" stroke-linecap="round" stroke-linejoin="round" stroke-width="2" d="M29.701 9.084l7.112 7.247c.4.406.117 1.1-.449 1.1H33.22a.64.64 0 0 0-.635.644v9.28a.64.64 0 0 1-.634.645H14.66a.64.64 0 0 1-.635-.645v-9.28a.64.64 0 0 0-.634-.643h-2.756c-.566 0-.849-.695-.449-1.1L23.14 3.188a.628.628 0 0 1 .898 0l3.007 3.051"/>
        <path stroke="#FFF" stroke-linecap="round" stroke-linejoin="round" stroke-width="2" d="M23 18v6h6v-6z"/>
    </g>
</svg>
