<svg id="icSelfActive" xmlns="http://www.w3.org/2000/svg" width="32" height="32" viewBox="0 0 32 32">
  <rect id="矩形_666" data-name="矩形 666" width="32" height="32" fill="rgba(255,255,255,0)"/>
  <g id="Group" transform="translate(5.95 6.909)">
    <circle id="Oval" cx="3.636" cy="3.636" r="3.636" transform="translate(11.818 13.637)" fill="#37b1f8"/>
    <path id="Rectangle" d="M6.364,0h6.364a0,0,0,0,1,0,0V6.364a0,0,0,0,1,0,0H0a0,0,0,0,1,0,0v0A6.364,6.364,0,0,1,6.364,0Z" transform="translate(4.546 14.546)" fill="#37b1f8"/>
    <circle id="Oval-2" data-name="Oval" cx="4.091" cy="4.091" r="4.091" transform="translate(7.273 2.727)" fill="#37b1f8"/>
    <g id="Combined_Shape" data-name="Combined Shape" transform="translate(0 11.348)" fill="none" stroke-miterlimit="10">
      <path d="M17.273,10.471H2.727A2.731,2.731,0,0,1,0,7.743,9.041,9.041,0,0,1,4.325,0,8.141,8.141,0,0,0,10,2.289,8.142,8.142,0,0,0,15.675,0,9.04,9.04,0,0,1,20,7.743,2.731,2.731,0,0,1,17.273,10.471Z" stroke="none"/>
      <path d="M 17.27280044555664 8.470595359802246 C 17.67416954040527 8.470595359802246 18.00069999694824 8.144064903259277 18.00069999694824 7.742695331573486 C 18.00069999694824 5.728559494018555 17.16775131225586 3.860231876373291 15.7215633392334 2.531176328659058 C 14.04541397094727 3.673345804214478 12.0650634765625 4.288695335388184 9.999899864196777 4.288695335388184 C 7.934744834899902 4.288695335388184 5.95464563369751 3.673526048660278 4.278530120849609 2.531397581100464 C 2.832796573638916 3.860526561737061 2 5.728824615478516 2 7.742695331573486 C 2 8.144064903259277 2.326129913330078 8.470595359802246 2.726999998092651 8.470595359802246 L 17.27280044555664 8.470595359802246 M 17.27280044555664 10.47059535980225 L 2.726999998092651 10.47059535980225 C 1.223330020904541 10.47059535980225 -1.525879866903779e-09 9.246865272521973 -1.525879866903779e-09 7.742695331573486 C -1.525879866903779e-09 4.565245151519775 1.616639971733093 1.670805335044861 4.32450008392334 8.529571641702205e-05 C 5.856589794158936 1.475965261459351 7.871719837188721 2.288695335388184 9.999899864196777 2.288695335388184 C 12.12769985198975 2.288695335388184 14.14328956604004 1.475885272026062 15.67537975311279 -4.704284492618171e-06 C 18.38421058654785 1.670795321464539 20.00069999694824 4.565315246582031 20.00069999694824 7.742695331573486 C 20.00069999694824 9.246865272521973 18.77696990966797 10.47059535980225 17.27280044555664 10.47059535980225 Z" stroke="none" fill="#fff"/>
    </g>
    <circle id="Oval-3" data-name="Oval" cx="5.455" cy="5.455" r="5.455" transform="translate(4.546)" fill="none" stroke="#fff" stroke-miterlimit="10" stroke-width="2"/>
  </g>
</svg>
