<svg xmlns="http://www.w3.org/2000/svg" width="48" height="32" viewBox="0 0 48 32">
    <g fill="none" fill-rule="evenodd" transform="translate(13 4)">
        <path fill="#EE3274" d="M15 14h6v4H11a4 4 0 0 0 4-4zM10 18h11v5H5a5 5 0 0 1 5-5z"/>
        <circle cx="12.5" cy="7.5" r="4.5" fill="#EE3274"/>
        <path stroke="#FFF" stroke-width="2" d="M18.342 12.79A9.977 9.977 0 0 1 11 16a9.977 9.977 0 0 1-7.342-3.21A5.5 5.5 0 0 0 1 17.5V21a2 2 0 0 0 2 2h16a2 2 0 0 0 2-2v-3.5a5.5 5.5 0 0 0-2.658-4.71z"/>
        <circle cx="11" cy="6" r="6" stroke="#FFF" stroke-width="2"/>
    </g>
</svg>
