<svg xmlns="http://www.w3.org/2000/svg" width="32" height="32" viewBox="0 0 32 32">
  <g id="Group_221" data-name="Group 221" transform="translate(-5854 3086)">
    <g id="Group_220" data-name="Group 220" transform="translate(485.878 254.186)">
      <path id="Path_59" data-name="Path 59" d="M5376.195-3283.374c1.167-3.234,3.668-5.668,7.67-4.834s8.672.767,10.406-.967,1.834-.4,1.834-.4l6.9-3.534.233,12.969-7.37-3.234s.033,1.334,0,2.6-.7,2.4-1.6,2.4-16.375-.2-16.375-.2l-1.535-1.8Z" transform="translate(-5.828 -37.527)" fill="#ee3274"/>
      <path id="video-camera" d="M27.694,1.572a.594.594,0,0,0-.587-.011l-6.421,3.5v-2.1A2.967,2.967,0,0,0,17.722,0H2.965A2.967,2.967,0,0,0,0,2.963v11.7a2.967,2.967,0,0,0,2.964,2.963H17.722a2.967,2.967,0,0,0,2.964-2.963V12.6l6.421,3.5a.593.593,0,0,0,.877-.52V2.082a.592.592,0,0,0-.29-.51ZM19.5,14.664a1.78,1.78,0,0,1-1.779,1.778H2.965a1.78,1.78,0,0,1-1.779-1.778V2.963A1.78,1.78,0,0,1,2.965,1.185H17.722A1.781,1.781,0,0,1,19.5,2.963Zm7.3-.079-6.112-3.336V6.416L26.8,3.081Zm0,0" transform="translate(5370 -3333)" fill="#fff"/>
    </g>
    <rect id="Rectangle_160" data-name="Rectangle 160" width="32" height="32" transform="translate(5854 -3086)" fill="rgba(255,255,255,0)"/>
  </g>
</svg>
