<svg xmlns="http://www.w3.org/2000/svg" width="32" height="30.609" viewBox="0 0 32 30.609">
  <g id="logout" transform="translate(0 -0.332)">
    <path id="Path_65" data-name="Path 65" d="M170.55,221.087H150.375a1.043,1.043,0,0,1,0-2.087H170.55a1.043,1.043,0,0,1,0,2.087Zm0,0" transform="translate(-139.593 -204.407)" fill="#fff"/>
    <path id="Path_66" data-name="Path 66" d="M155.948,146.871a1.035,1.035,0,0,1-.738-.306L149.646,141a1.044,1.044,0,0,1,0-1.476l5.565-5.565a1.044,1.044,0,0,1,1.476,1.476l-4.828,4.828,4.828,4.828a1.043,1.043,0,0,1-.739,1.781Zm0,0" transform="translate(-139.6 -124.626)" fill="#fff"/>
    <path id="Path_67" data-name="Path 67" d="M15.3,30.941a15.3,15.3,0,1,1,14.244-20.9,1.044,1.044,0,1,1-1.942.764,13.217,13.217,0,1,0,0,9.671,1.044,1.044,0,1,1,1.942.764,15.226,15.226,0,0,1-14.244,9.7Zm0,0" fill="#fff"/>
  </g>
</svg>
