<svg xmlns="http://www.w3.org/2000/svg" width="32" height="32" viewBox="0 0 32 32">
  <g id="Group_224" data-name="Group 224" transform="translate(-5800 3086)">
    <rect id="Rectangle_161" data-name="Rectangle 161" width="32" height="32" transform="translate(5800 -3086)" fill="rgba(255,255,255,0)"/>
    <g id="Group_223" data-name="Group 223" transform="translate(-3 1)">
      <path id="Path_62" data-name="Path 62" d="M5825.855-3073.559s-1.174,1.787-6.39,1.473-3.211-4.757-7.9-4.177-5.554,3.163-5.554,3.163.06,2.834,3.8,5.321c.505.336-2.389,2.573-1.727,2.842,3.975-.409,4.08-1.8,5.126-1.709a35.565,35.565,0,0,0,6.006-.2s5.684-1.215,6.785-6.061C5826.245-3074.079,5825.855-3073.559,5825.855-3073.559Z" fill="#ee3274"/>
      <g id="speech-bubbles-comment-option" transform="translate(5806 -3135.804)">
        <g id="Group_222" data-name="Group 222" transform="translate(0 54.804)">
          <path id="Path_60" data-name="Path 60" d="M15.021,68.376a9.02,9.02,0,0,0,3.643-2.649,5.658,5.658,0,0,0,0-7.3,9.02,9.02,0,0,0-3.643-2.649A12.793,12.793,0,0,0,10,54.8a12.8,12.8,0,0,0-5.021.973,9.02,9.02,0,0,0-3.643,2.649A5.737,5.737,0,0,0,0,62.076a5.581,5.581,0,0,0,1.009,3.182,8.3,8.3,0,0,0,2.77,2.514q-.142.341-.291.625a3.6,3.6,0,0,1-.355.547q-.206.263-.32.412t-.369.419q-.256.27-.327.355c0-.009-.019.012-.057.064S2,70.269,2,70.265s-.024.019-.057.071l-.05.078-.036.071a.3.3,0,0,0-.028.085.556.556,0,0,0-.007.092.286.286,0,0,0,.014.092.471.471,0,0,0,.163.3.444.444,0,0,0,.291.113H2.33a11.908,11.908,0,0,0,1.221-.227A11.944,11.944,0,0,0,7.5,69.121a14.264,14.264,0,0,0,2.5.227A12.781,12.781,0,0,0,15.021,68.376Z" transform="translate(0 -54.804)" fill="rgba(238,50,116,0)" stroke="#fff" stroke-width="1"/>
          <path id="Path_61" data-name="Path 61" d="M191.561,166.561a5.544,5.544,0,0,0-.057-6.456,8.419,8.419,0,0,0-2.9-2.528,7.31,7.31,0,0,1-.625,5.767,9.507,9.507,0,0,1-2.727,3.011,12.577,12.577,0,0,1-3.75,1.832,15.006,15.006,0,0,1-4.389.639q-.426,0-1.25-.057a11.935,11.935,0,0,0,6.7,1.875,14.271,14.271,0,0,0,2.5-.227,11.343,11.343,0,0,0,5.17,2.046.428.428,0,0,0,.313-.1.525.525,0,0,0,.185-.312c0-.057,0-.088.014-.093s.012-.035-.007-.092l-.028-.085-.035-.071a.679.679,0,0,0-.05-.078.612.612,0,0,0-.057-.071c-.014-.014-.035-.038-.064-.071s-.047-.054-.057-.064q-.071-.085-.327-.355t-.369-.419q-.114-.149-.32-.412a3.593,3.593,0,0,1-.355-.547q-.149-.284-.291-.625A8.334,8.334,0,0,0,191.561,166.561Z" transform="translate(-167.117 -152.464)" fill="#ee3274" stroke="#fff" stroke-width="1"/>
        </g>
      </g>
    </g>
  </g>
</svg>
